# xmcd
#
# Track frame offsets:
#	150
#	5290
#	27035
#	49665
#	71446
#	96167
#	133863
#	165349
#	191852
#	243859
#	286469
#
# Disc length: 4127 seconds
#
# Revision: 0
# Processed by: cddbd v1.5.2PL0 Copyright (c) Steve Scherf et al.
# Submitted via: EasyCDDAExtractor 9.0.0.1
#
DISCID=8d101d0b
DTITLE=Blue Oyster Cult - Let Freedon Rock Festival Pennsauken NJ 04-07-05
DYEAR=2005
DGENRE=Hard Rock
TTITLE0=Intro
TTITLE1=The Red And The Black
TTITLE2=OD'd On Life
TTITLE3=Burnin' for You
TTITLE4=ETI
TTITLE5=Shooting Shark
TTITLE6=Buck's Boogie
TTITLE7=Cities On Flame
TTITLE8=Godzilla
TTITLE9=Don't Fear The Reaper
TTITLE10=Hot Rails To Hell
EXTD=
EXTT0=
EXTT1=
EXTT2=
EXTT3=
EXTT4=
EXTT5=
EXTT6=
EXTT7=
EXTT8=
EXTT9=
EXTT10=
PLAYORDER=
